NAYAKUDU (1987) 1CD DVDRIP TELUGU MOVIE


FOR SCREENSHOTS VISIT 
http://teluguppls.blogspot.com/2010/11/nayakudu-1987-movie-torrent.html



General

Format                           : AVI
File size                        : 687 MiB
Duration                         : 2h 2mn
Overall bit rate                 : 787 Kbps
Writing application              : VirtualDubMod 1.5.10.2 (build 2540/release)
Writing library                  : VirtualDubMod build 2540/release


Video

Format                           : MPEG-4 Visual
Format profile                   : Advanced Simple@L5
Codec ID                         : XVID
Duration                         : 2h 2mn
Bit rate                         : 692 Kbps
Width                            : 544 pixels
Height                           : 416 pixels
Display aspect ratio             : 4:3
Frame rate                       : 23.976 fps
Chroma subsampling               : 4:2:0
Bit depth                        : 8 bits
Compression mode                 : Lossy
Bits/(Pixel*Frame)               : 0.128
Stream size                      : 604 MiB (88%)
Writing library                  : XviD 1.2.1 (UTC 2008-12-04)


Audio

Format                           : MPEG Audio
Codec ID/Hint                    : MP3
Duration                         : 2h 1mn
Bit rate mode                    : Variable
Bit rate                         : 85.1 Kbps
Nominal bit rate                 : 96.0 Kbps
Channel(s)                       : 2 channels
Sampling rate                    : 32.0 KHz
Compression mode                 : Lossy
Stream size                      : 74.0 MiB (11%)





Post a comment.................